<?xml version="1.0" encoding="utf-8"?>
<!-- Generator: Adobe Illustrator 21.0.2, SVG Export Plug-In . SVG Version: 6.00 Build 0)  -->
<svg version="1.1" xmlns="http://www.w3.org/2000/svg" xmlns:xlink="http://www.w3.org/1999/xlink" x="0px" y="0px"
	 viewBox="0 0 24 48" style="enable-background:new 0 0 24 48;" xml:space="preserve">
<style type="text/css">
	.st0{display:none;}
	.st1{display:inline;}
	.st2{fill:#FF3C00;}
	.st3{fill:#FF3C00;stroke:#FF3C00;stroke-miterlimit:10;}
</style>
<g id="l_x5F_rays" class="st0">
	<g class="st1">
		<polygon class="st2" points="4.8,19 19.2,19 18.7,18 5.3,18 		"/>
		<polygon class="st2" points="2.6,23 21.4,23 20.9,22 3.1,22 		"/>
		<polygon class="st2" points="10.3,39 13.7,39 14.2,38 9.8,38 		"/>
		<polygon class="st2" points="3.7,20.9 20.3,20.9 19.8,20 4.2,20 		"/>
		<polygon class="st2" points="12,42 12,42 12,42 		"/>
		<polygon class="st2" points="11.4,40.9 12.6,40.9 13.1,40 10.9,40 		"/>
		<polygon class="st2" points="5.9,16.9 18.1,16.9 17.6,16.1 6.4,16.1 		"/>
		<polygon class="st2" points="7,15 17,15 16.5,14 7.5,14 		"/>
		<polygon class="st2" points="4.7,28.9 19.3,28.9 19.8,28 4.2,28 		"/>
		<polygon class="st2" points="5.9,31 18.1,31 18.7,30 5.3,30 		"/>
		<polygon class="st2" points="9.2,36.9 14.8,36.9 15.3,36 8.7,36 		"/>
		<polygon class="st2" points="3.6,27 20.4,27 20.9,26 3.1,26 		"/>
		<polygon class="st2" points="8.1,35 15.9,35 16.5,34 7.5,34 		"/>
		<polygon class="st2" points="2.5,24.9 21.5,24.9 22,24 2,24 		"/>
		<polygon class="st2" points="10.3,9 13.7,9 13.1,8.1 10.9,8.1 		"/>
		<polygon class="st2" points="7,32.9 17,32.9 17.6,32 6.4,32 		"/>
		<polygon class="st2" points="9.2,11 14.8,11 14.2,10 9.8,10 		"/>
		<polygon class="st2" points="11.4,7 12.6,7 12,6 12,6 		"/>
		<polygon class="st2" points="8.1,13 15.9,13 15.4,12.1 8.6,12.1 		"/>
	</g>
</g>
<g id="losenge">
	<polygon class="st3" points="12,6 2,24 12,42 22,24 	"/>
</g>
</svg>
