<?xml version="1.0" encoding="utf-8"?>
<!-- Generator: Adobe Illustrator 21.0.2, SVG Export Plug-In . SVG Version: 6.00 Build 0)  -->
<svg version="1.1" xmlns="http://www.w3.org/2000/svg" xmlns:xlink="http://www.w3.org/1999/xlink" x="0px" y="0px"
	 viewBox="0 0 24 48" style="enable-background:new 0 0 24 48;" xml:space="preserve">
<style type="text/css">
	.st0{fill:#FF3C00;}
	.st1{fill:none;stroke:#FF3C00;stroke-miterlimit:10;}
</style>
<g id="o_x5F_rays">
	<g>
		<path class="st0" d="M12,42c0.4,0,0.8,0,1.1-0.1h-2.2C11.2,42,11.6,42,12,42z"/>
		<path class="st0" d="M3.3,36.9h17.4c0.2-0.3,0.3-0.6,0.5-0.9H2.8C3,36.3,3.1,36.6,3.3,36.9z"/>
		<path class="st0" d="M4.8,38.9h14.4c0.3-0.3,0.6-0.6,0.8-1H4C4.2,38.3,4.5,38.6,4.8,38.9z"/>
		<path class="st0" d="M2.4,34.9h19.1c0.1-0.3,0.2-0.6,0.2-1H2.2C2.3,34.3,2.3,34.6,2.4,34.9z"/>
		<path class="st0" d="M7.4,40.9h9.1c0.5-0.3,1-0.6,1.5-0.9H6C6.4,40.3,6.9,40.6,7.4,40.9z"/>
		<path class="st0" d="M2,32c0,0.3,0,0.6,0,0.9H22c0-0.3,0-0.6,0-0.9v0L2,32L2,32z"/>
		<rect x="2" y="20" class="st0" width="20" height="0.9"/>
		<rect x="2" y="24" class="st0" width="20" height="0.9"/>
		<rect x="2" y="21.9" class="st0" width="20" height="1"/>
		<rect x="2" y="16" class="st0" width="20" height="0.9"/>
		<rect x="2" y="17.9" class="st0" width="20" height="1"/>
		<path class="st0" d="M4.9,9h14.2C18.8,8.6,18.4,8.3,18,8H6C5.6,8.3,5.2,8.6,4.9,9z"/>
		<path class="st0" d="M12,6c-1.5,0-3,0.4-4.3,1h8.6C15,6.4,13.5,6,12,6z"/>
		<path class="st0" d="M2.1,15h19.9c0-0.3-0.1-0.7-0.1-1H2.2C2.1,14.3,2.1,14.6,2.1,15z"/>
		<path class="st0" d="M2.5,13h19.1c-0.1-0.3-0.2-0.6-0.4-0.9H2.8C2.7,12.3,2.6,12.6,2.5,13z"/>
		<path class="st0" d="M3.4,11h17.3c-0.2-0.3-0.4-0.7-0.7-1H4C3.8,10.3,3.6,10.6,3.4,11z"/>
		<rect x="2" y="29.9" class="st0" width="20" height="1"/>
		<rect x="2" y="25.9" class="st0" width="20" height="1"/>
		<rect x="2" y="28" class="st0" width="20" height="0.9"/>
	</g>
</g>
<g id="oval">
	<path class="st1" d="M2,32c0,5.5,4.5,10,10,10s10-4.5,10-10V16c0-5.5-4.5-10-10-10S2,10.5,2,16V32z"/>
</g>
</svg>
