<?xml version="1.0" encoding="utf-8"?>
<!-- Generator: Adobe Illustrator 21.0.2, SVG Export Plug-In . SVG Version: 6.00 Build 0)  -->
<svg version="1.1" xmlns="http://www.w3.org/2000/svg" xmlns:xlink="http://www.w3.org/1999/xlink" x="0px" y="0px"
	 viewBox="0 0 24 48" style="enable-background:new 0 0 24 48;" xml:space="preserve">
<style type="text/css">
	.st0{display:none;}
	.st1{display:inline;}
	.st2{fill:#FF3C00;}
	.st3{fill:none;stroke:#FF3C00;stroke-miterlimit:10;}
</style>
<g id="s_x5F_rays" class="st0">
	<g class="st1">
		<path class="st2" d="M2.9,34.9h16.6c0-0.3,0-0.7,0-1H3.6C3.4,34.3,3.1,34.6,2.9,34.9z"/>
		<path class="st2" d="M5.4,40.9H15c0.6-0.3,1.1-0.6,1.6-0.9H3.9C4.3,40.3,4.8,40.6,5.4,40.9z"/>
		<path class="st2" d="M2.1,36.8C2.1,36.8,2.1,36.8,2.1,36.8l17,0.1c0.1-0.3,0.2-0.6,0.3-0.9H2.3C2.2,36.2,2.1,36.5,2.1,36.8z"/>
		<path class="st2" d="M2.9,38.9h14.8c0.3-0.3,0.6-0.6,0.8-1H2.4C2.5,38.2,2.7,38.6,2.9,38.9z"/>
		<path class="st2" d="M5.9,18.9h11.9c0.1-0.3,0.2-0.7,0.4-1H5.6C5.7,18.2,5.8,18.6,5.9,18.9z"/>
		<path class="st2" d="M5.2,16.9h13.5c0.2-0.3,0.3-0.6,0.5-0.9H4.9C5,16.3,5.1,16.6,5.2,16.9z"/>
		<path class="st2" d="M6.6,20.9h10.7c0.1-0.3,0.1-0.6,0.2-0.9H6.3C6.4,20.2,6.5,20.6,6.6,20.9z"/>
		<path class="st2" d="M4.7,15h15.1c0.2-0.4,0.5-0.7,0.7-1h-16C4.6,14.3,4.6,14.6,4.7,15z"/>
		<path class="st2" d="M7,24c0,0.3,0,0.6,0,0.9H17c0-0.3,0-0.6,0-0.9c0,0,0,0,0-0.1L7,24C7,24,7,24,7,24z"/>
		<path class="st2" d="M6.9,22.9H17c0-0.3,0.1-0.7,0.1-1H6.8C6.9,22.2,6.9,22.6,6.9,22.9z"/>
		<path class="st2" d="M5,11h16.9c0-0.3-0.1-0.6-0.3-1h-16C5.3,10.3,5.1,10.6,5,11z"/>
		<path class="st2" d="M13.2,6.1c-1.4,0-2.7,0.3-3.9,0.8h8.8C16.9,6.5,15.3,6.1,13.2,6.1z"/>
		<path class="st2" d="M4.5,12.9C4.5,12.9,4.5,12.9,4.5,12.9l16.7,0.1c0.2-0.3,0.4-0.6,0.5-0.9H4.6C4.5,12.3,4.5,12.6,4.5,12.9z"/>
		<path class="st2" d="M6.4,8.9H21C20.7,8.6,20.4,8.3,20,8H7.6C7.1,8.3,6.8,8.6,6.4,8.9z"/>
		<path class="st2" d="M6.8,26.9h10.6c-0.1-0.3-0.2-0.6-0.2-1H6.9C6.9,26.3,6.8,26.6,6.8,26.9z"/>
		<path class="st2" d="M4.3,32.9h15c-0.1-0.3-0.1-0.6-0.2-0.9H4.9C4.7,32.3,4.5,32.6,4.3,32.9z"/>
		<path class="st2" d="M6.3,28.9h11.8c-0.1-0.3-0.2-0.6-0.3-0.9H6.6C6.5,28.3,6.4,28.6,6.3,28.9z"/>
		<path class="st2" d="M5.5,30.9h13.3c-0.1-0.3-0.2-0.7-0.3-1H5.9C5.8,30.3,5.6,30.6,5.5,30.9z"/>
	</g>
</g>
<g id="squiggle">
	<path class="st3" d="M4.5,12.8C4.5,9.5,8.7,6,13.2,6c6.6,0,8.6,3.4,8.6,5.1c0,2.3-4.9,5.1-4.9,12.8c0,4.2,2.6,6.5,2.5,11.1
		c-0.1,3.2-4.2,6.8-8.8,6.8c-6.6,0-8.6-3.4-8.6-5.1c0-2.3,4.9-4.8,4.9-12.8C7,19.5,4.5,17.2,4.5,12.8z"/>
</g>
</svg>
